<svg xmlns="http://www.w3.org/2000/svg"viewBox="0 0 100 45"><style>.a{stroke-linejoin:round;}.b{stroke-width:0.8px;stroke:black;}</style><path d="M50.5 34.6C51.5 28.8 55.6 25.3 62.5 25.3 66.9 25.4 68.1 26.5 72.2 27.8 76.3 29 79.9 29.4 81.9 27.4 83.3 26 84.9 23.5 83.3 20.2 81.5 16.7 77.9 16.1 75.7 17.2 73 18.5 72.2 21.7 75.2 23.1 73.2 20.6 76 18.3 77.9 19.8 79.9 21.4 78 24.2 75.4 24 71.8 23.7 70.4 18.4 75.2 16 78.3 14.4 83.3 16.3 84.8 19.9 85.9 22.7 85 26.3 82.6 28.2 80.4 30.1 77.4 30.7 73.1 29.4 76.6 32.9 79.8 38.5 83.5 41.6 87.1 44.6 95.1 45.1 97.8 39.8 99.5 36.4 97.5 32.5 94.8 31.9 92.2 31.3 90.6 32.3 89.6 33.5 88.4 34.8 88.6 37.3 90.4 37.9 88.6 36.5 90.3 33.4 92.7 34.6 95.2 35.8 93.4 39.1 91.3 39 88.2 38.9 86.6 36.2 88.3 32.9 89.1 31.3 92 29.6 95.4 30.7 99.7 32.2 100.9 37.1 99.6 39.9 97 45.8 88.2 46.5 82.9 42.4 80.7 40.6 78.2 38.2 76.1 35.2 77.1 39.7 75.3 42.6 72.4 44.1 69.3 45.6 65.1 45 63.2 42.3 61.4 39.7 61.9 35.5 64.5 34.1 66.6 33.1 69 34 70 35.9 70.9 37.6 70.4 40.1 67.9 40.1 65 40.1 65.4 34.7 69.2 36.1 68.6 34.9 66.7 34.6 65.4 35 62.7 35.7 63.2 39.5 64.5 41.3 66.3 44 69.9 44.7 72.4 43 75.2 41.1 75.9 37 74.5 34 72.4 29.4 66.9 26.1 62.6 26.1 54.2 26.2 50.4 31.7 51.4 39 51.8 41.7 53.7 43.4 56 43.5 58.5 43.5 60 41.6 58.8 39.4 58.2 38.3 56.6 37.9 55.8 38.3 57.9 39.2 56.7 41.6 55.3 41.5 53.5 41.3 53.1 39.3 54.5 38 56.1 36.6 58.7 37.1 59.8 38.7 61.8 42 58.7 45.2 56 45 53.7 44.8 51.2 43 50.5 40.1 49.8 43 47.3 44.8 45 45 42.3 45.2 39.2 42 41.2 38.7 42.3 37.1 44.9 36.6 46.5 38 47.9 39.3 47.5 41.3 45.7 41.5 44.3 41.6 43.1 39.2 45.2 38.3 44.4 37.9 42.8 38.3 42.2 39.4 41 41.6 42.5 43.5 45 43.5 47.3 43.4 49.2 41.7 49.6 39 50.6 31.7 46.8 26.2 38.4 26.1 34.1 26.1 28.6 29.4 26.5 34 25.1 37 25.8 41.1 28.6 43 31.1 44.7 34.7 44 36.5 41.3 37.8 39.5 38.3 35.7 35.6 35 34.3 34.6 32.4 34.9 31.8 36.1 35.6 34.7 36 40.1 33.1 40.1 30.6 40.1 30.1 37.6 31 35.9 32 34 34.4 33.1 36.5 34.1 39.1 35.5 39.6 39.7 37.8 42.3 35.9 45 31.7 45.6 28.6 44.1 25.7 42.6 23.9 39.7 24.9 35.2 22.8 38.2 20.3 40.6 18.1 42.4 12.8 46.5 4 45.8 1.4 39.9 0.1 37.1 1.3 32.2 5.6 30.7 9 29.6 11.9 31.3 12.7 32.9 14.4 36.2 12.8 38.9 9.7 39 7.6 39.1 5.8 35.8 8.3 34.6 10.7 33.4 12.4 36.5 10.6 37.9 12.4 37.3 12.6 34.8 11.4 33.5 10.4 32.3 8.8 31.3 6.2 31.9 3.5 32.5 1.5 36.4 3.2 39.8 5.9 45.1 13.9 44.6 17.5 41.6 21.2 38.5 24.4 32.9 27.9 29.4 23.6 30.7 20.6 30.1 18.4 28.2 16 26.3 15.1 22.7 16.2 19.9 17.7 16.3 22.7 14.4 25.8 16 30.6 18.4 29.2 23.7 25.6 24 23 24.2 21.1 21.4 23.1 19.8 25 18.3 27.8 20.6 25.8 23.1 28.8 21.7 28 18.5 25.3 17.2 23.1 16.1 19.5 16.7 17.7 20.2 16.1 23.5 17.7 26 19.1 27.4 21.1 29.4 24.7 29 28.8 27.8 32.9 26.5 34.1 25.4 38.5 25.3 45.4 25.3 49.5 28.8 50.5 34.6ZM47 24.1C40.4 14.9 29.5 16.7 32.4 10.1 35.4 3.5 46 11.9 47 24.1ZM54 24.1C60.6 14.9 71.5 16.7 68.6 10.1 65.6 3.5 55 11.9 54 24.1ZM50.5 21.3C49.6 13.9 42.4 1 50.5 1 58.6 0.9 52 12.8 50.5 21.3Z"/></svg>
