<?xml version="1.0" encoding="UTF-8" standalone="no"?>
<!DOCTYPE svg PUBLIC "-//W3C//DTD SVG 1.1//EN" "http://www.w3.org/Graphics/SVG/1.1/DTD/svg11.dtd">
<svg width="100%" height="100%" viewBox="0 0 100 45" version="1.1" xmlns="http://www.w3.org/2000/svg" xmlns:xlink="http://www.w3.org/1999/xlink" xml:space="preserve" xmlns:serif="http://www.serif.com/" style="fill-rule:evenodd;clip-rule:evenodd;stroke-linejoin:round;">
    <g transform="matrix(1,0,0,1,-0.510184,-0.599544)">
        <path d="M50.5,34.564C51.491,28.786 55.624,25.307 62.522,25.337C66.873,25.367 68.111,26.546 72.234,27.785C76.258,28.994 79.915,29.371 81.897,27.379C83.315,25.962 84.93,23.464 83.265,20.193C81.501,16.744 77.933,16.11 75.693,17.181C72.958,18.489 72.155,21.749 75.227,23.097C73.196,20.58 75.981,18.34 77.874,19.807C79.935,21.403 77.973,24.247 75.376,24.019C71.798,23.702 70.391,18.35 75.168,15.952C78.26,14.406 83.295,16.269 84.781,19.926C85.921,22.711 85.009,26.259 82.641,28.211C80.391,30.074 77.418,30.729 73.116,29.401C76.556,32.909 79.836,38.528 83.503,41.601C87.051,44.584 95.099,45.109 97.794,39.837C99.539,36.437 97.537,32.493 94.811,31.888C92.175,31.303 90.649,32.275 89.568,33.504C88.439,34.792 88.637,37.309 90.351,37.884C88.587,36.517 90.332,33.365 92.74,34.574C95.158,35.793 93.424,39.074 91.313,39.004C88.191,38.905 86.625,36.209 88.29,32.899C89.112,31.284 92.016,29.609 95.436,30.739C99.747,32.156 100.857,37.081 99.618,39.896C97.011,45.833 88.191,46.517 82.889,42.354C80.718,40.649 78.211,38.201 76.149,35.228C77.13,39.678 75.336,42.552 72.353,44.059C69.34,45.595 65.099,44.98 63.235,42.334C61.412,39.747 61.868,35.456 64.504,34.128C66.575,33.077 68.994,33.96 70.024,35.882C70.926,37.577 70.361,40.074 67.943,40.094C64.97,40.114 65.386,34.663 69.172,36.071C68.567,34.871 66.704,34.604 65.396,34.97C62.7,35.714 63.235,39.51 64.464,41.313C66.278,43.979 69.925,44.693 72.433,42.978C75.218,41.075 75.901,36.992 74.514,33.96C72.433,29.401 66.922,26.071 62.561,26.13C54.197,26.239 50.411,31.68 51.412,38.994C51.788,41.67 53.711,43.444 56.02,43.464C58.508,43.474 60.024,41.601 58.815,39.401C58.221,38.31 56.575,37.924 55.802,38.291C57.903,39.242 56.744,41.601 55.277,41.482C53.483,41.343 53.107,39.321 54.514,38.033C56.1,36.586 58.686,37.081 59.757,38.737C61.838,41.987 58.706,45.159 55.991,44.951C53.731,44.782 51.204,42.978 50.5,40.124C49.796,42.978 47.269,44.782 45.009,44.951C42.294,45.159 39.162,41.987 41.243,38.737C42.314,37.081 44.9,36.586 46.486,38.033C47.893,39.321 47.517,41.343 45.723,41.482C44.256,41.601 43.097,39.242 45.198,38.291C44.425,37.924 42.779,38.31 42.185,39.401C40.976,41.601 42.502,43.474 44.98,43.464C47.289,43.444 49.212,41.67 49.588,38.994C50.589,31.68 46.803,26.239 38.439,26.13C34.078,26.071 28.567,29.401 26.486,33.96C25.099,36.992 25.782,41.075 28.567,42.978C31.075,44.693 34.722,43.979 36.536,41.313C37.765,39.51 38.3,35.714 35.604,34.97C34.296,34.604 32.443,34.871 31.828,36.071C35.614,34.663 36.03,40.114 33.057,40.094C30.639,40.074 30.074,37.577 30.976,35.882C32.006,33.96 34.425,33.077 36.496,34.128C39.132,35.456 39.588,39.747 37.765,42.334C35.901,44.98 31.66,45.595 28.647,44.059C25.664,42.552 23.87,39.678 24.851,35.228C22.789,38.201 20.282,40.649 18.111,42.354C12.809,46.517 3.989,45.833 1.382,39.896C0.143,37.081 1.253,32.156 5.564,30.739C8.984,29.609 11.888,31.284 12.71,32.899C14.375,36.209 12.809,38.905 9.687,39.004C7.576,39.074 5.842,35.793 8.26,34.574C10.668,33.365 12.413,36.517 10.649,37.884C12.363,37.309 12.561,34.792 11.432,33.504C10.351,32.275 8.825,31.303 6.189,31.888C3.463,32.493 1.461,36.437 3.206,39.837C5.901,45.109 13.949,44.584 17.497,41.601C21.164,38.528 24.444,32.909 27.884,29.401C23.582,30.729 20.609,30.074 18.359,28.211C15.991,26.259 15.079,22.711 16.219,19.926C17.705,16.269 22.74,14.406 25.832,15.952C30.609,18.35 29.202,23.702 25.624,24.019C23.027,24.247 21.065,21.403 23.126,19.807C25.019,18.34 27.804,20.58 25.773,23.097C28.845,21.749 28.042,18.489 25.317,17.181C23.077,16.11 19.499,16.744 17.735,20.193C16.07,23.464 17.685,25.962 19.103,27.379C21.085,29.371 24.742,28.994 28.766,27.785C32.889,26.546 34.127,25.367 38.478,25.337C45.376,25.307 49.509,28.786 50.5,34.564ZM46.972,24.138C40.391,14.891 29.509,16.665 32.423,10.104C35.376,3.464 45.981,11.908 46.972,24.138ZM54.028,24.138C60.609,14.891 71.491,16.665 68.577,10.104C65.624,3.464 55.019,11.908 54.028,24.138ZM50.5,21.333C49.588,13.94 42.443,1.046 50.5,0.996C58.597,0.937 52.036,12.81 50.5,21.333Z" style="fill-rule:nonzero;stroke:black;stroke-width:0.79px;"/>
    </g>
</svg>
